<?xml version="1.0" encoding="UTF-8" standalone="no"?>
<!DOCTYPE svg PUBLIC "-//W3C//DTD SVG 1.1//EN" "http://www.w3.org/Graphics/SVG/1.1/DTD/svg11.dtd">
<svg width="100%" height="100%" viewBox="0 0 638 638" version="1.1" xmlns="http://www.w3.org/2000/svg" xmlns:xlink="http://www.w3.org/1999/xlink" xml:space="preserve" xmlns:serif="http://www.serif.com/" style="fill-rule:evenodd;clip-rule:evenodd;stroke-linejoin:round;stroke-miterlimit:2;">
    <path d="M75.9,396.2C77.8,392 81,389.8 85.7,389.2C89.9,388.6 94,387.6 98.2,386.8C103.9,385.7 107.8,388.1 108.9,393.8C111.8,408.7 115.4,423.3 122,437C145.3,485 182.9,515.1 235.2,526.6C238,527.2 240.8,527.7 243.6,528.3C248.8,529.5 251.4,532.8 250.6,538.1C249.8,543.8 248.9,549.5 247.3,555C246.6,557.3 244.1,559.1 242.3,561.2L235.5,561.2C232.5,560.5 229.6,559.7 226.6,559C153.7,541.4 105.6,496.8 82.1,425.7C79.3,417.1 77.8,408.1 75.7,399.2C75.9,398.2 75.9,397.2 75.9,396.2Z" style="fill:rgb(59,110,141);fill-rule:nonzero;"/>
    <path d="M561.9,446.5C545.2,463.2 528.5,479.8 511.8,496.5C510.7,497.6 509.8,498.7 509.1,499.5C496.7,487 484.5,474.9 472.8,463.1C490,445.9 507.8,428.1 526.1,409.7C528.9,412.7 532.1,416.3 535.5,419.8C543.3,427.7 551.2,435.5 559,443.4C559.9,444.3 560.9,445 561.8,445.7C561.9,446 561.9,446.2 561.9,446.5Z" style="fill:rgb(59,110,141);fill-rule:nonzero;"/>
    <path d="M374.5,204.9C382.6,204.8 389.5,207.4 395.1,212.9C405.1,222.7 415.1,232.5 424.7,242.6C435.4,253.8 435.5,271.7 424.6,282.7C398.1,309.6 371.4,336.2 344.5,362.7C333.7,373.4 315.8,373.4 304.7,362.9C294.3,353 284.1,342.8 274.2,332.4C263.7,321.3 263.7,303.5 274.5,292.6C300.9,265.8 327.6,239.3 354.2,212.8C359.9,207.3 366.9,204.7 374.5,204.9Z" style="fill:rgb(51,52,50);fill-rule:nonzero;"/>
    <path d="M251.6,470.6C249.7,476 247.6,483 244.8,489.6C243.4,492.9 239.2,493.8 235.2,492.6C191.7,479.7 161.7,452.5 147,409.2C146.2,406.7 145.3,404.2 144.6,401.7C143.3,397 145.3,392.8 149.9,391.2C155.1,389.4 160.3,387.7 165.6,386.2C170.5,384.8 174.2,386.8 176,391.6C178.2,397.3 179.8,403.3 182.4,408.8C193.9,434.1 213.2,450.7 239.7,459.2C242.1,460 244.5,460.7 246.7,461.7C249.9,463 251.4,465.7 251.6,470.6Z" style="fill:rgb(189,91,79);fill-rule:nonzero;"/>
    <path d="M288.2,430C261.2,403 234.3,376.1 207.4,349.2C227.7,334.4 257.4,330.7 281,353C307,377.6 303.6,408.5 288.2,430Z" style="fill:rgb(51,52,50);fill-rule:nonzero;"/>
    <path d="M227,112.8C209.7,130 192,147.7 174.5,165.3C162.5,153.3 150.4,141.1 138.4,129.2C155.8,111.8 173.6,94.1 191,76.7C202.8,88.4 214.9,100.6 227,112.8Z" style="fill:rgb(59,110,141);fill-rule:nonzero;"/>
    <path d="M224.5,215.3C212.5,203.3 200.4,191.2 188.4,179.3C205.8,161.9 223.6,144.1 241,126.6C252.9,138.5 265.2,150.7 277.1,162.6C259.7,180 242,197.8 224.5,215.3Z" style="fill:rgb(189,91,79);fill-rule:nonzero;"/>
    <path d="M457.9,449.2C446,437.3 433.9,425.2 422.2,413.4C439.9,395.7 457.7,378 475.2,360.4C487,372.1 499.1,384.2 511.1,396.1C493.4,413.7 475.7,431.4 457.9,449.2Z" style="fill:rgb(189,91,79);fill-rule:nonzero;"/>
    <path d="M238.6,228.9C255.9,211.7 273.7,194 291.3,176.5C303.2,188.4 315.3,200.6 327.3,212.5C309.8,229.9 292.1,247.6 274.6,265C262.9,253.3 250.8,241.1 238.6,228.9Z" style="fill:rgb(240,200,88);fill-rule:nonzero;"/>
    <path d="M424.7,310.1C436.7,322.1 448.9,334.2 460.9,346C443.3,363.6 425.6,381.3 408.1,398.8C396.2,386.8 384,374.7 372.1,362.7C389.5,345.4 407.2,327.7 424.7,310.1Z" style="fill:rgb(240,200,88);fill-rule:nonzero;"/>
</svg>
